<svg xmlns="http://www.w3.org/2000/svg" xmlns:xlink="http://www.w3.org/1999/xlink" viewBox="0 0 690.54 255.69"><defs><style>.cls-1{isolation:isolate;}.cls-2{fill:#e01d42;}.cls-3,.cls-4{mix-blend-mode:multiply;}.cls-3{fill:url(#linear-gradient);}.cls-5{fill:url(#linear-gradient-2);}.cls-6{fill:#231f20;}.cls-7{fill:url(#linear-gradient-3);}</style><linearGradient id="linear-gradient" x1="960.68" y1="229.1" x2="1030.39" y2="264.63" gradientTransform="translate(1071.48 336.41) rotate(180)" gradientUnits="userSpaceOnUse"><stop offset="0.03" stop-color="#b5afb3"/><stop offset="0.18" stop-color="#cdc9cc"/><stop offset="0.35" stop-color="#e3e1e2"/><stop offset="0.54" stop-color="#f3f2f2"/><stop offset="0.74" stop-color="#fcfcfc"/><stop offset="1" stop-color="#fff"/></linearGradient><linearGradient id="linear-gradient-2" x1="941.58" y1="218.97" x2="855.28" y2="268.79" gradientTransform="translate(1071.48 336.41) rotate(180)" gradientUnits="userSpaceOnUse"><stop offset="0.1" stop-color="#b5afb3"/><stop offset="0.15" stop-color="#c8c4c7"/><stop offset="0.22" stop-color="#dcdadb"/><stop offset="0.31" stop-color="#ecebec"/><stop offset="0.42" stop-color="#f7f6f7"/><stop offset="0.58" stop-color="#fdfdfd"/><stop offset="1" stop-color="#fff"/></linearGradient><linearGradient id="linear-gradient-3" x1="583.72" y1="307.82" x2="538.06" y2="334.18" gradientTransform="matrix(-0.63, -0.78, 0.78, -0.63, 350.31, 681.49)" xlink:href="#linear-gradient-2"/></defs><title>VR_Logo_01</title><g class="cls-1"><g id="Layer_1" data-name="Layer 1"><path class="cls-2" d="M656.52,575.59h80.37l39.44,83.65,40.92-83.65H897.6L776.33,831.28Z" transform="translate(-656.52 -575.59)"/><polygon class="cls-3" points="79.27 169.18 120.66 81.92 119.81 83.65 88.97 18.26 37.2 79.4 79.27 169.18"/><path class="cls-2" d="M656.52,575.59h80.37l39.44,83.65,40.92-83.65H897.6L776.33,831.28Z" transform="translate(-656.52 -575.59)"/><g class="cls-4"><polygon class="cls-5" points="160.3 170.1 212.23 60.76 140.65 41.03 123.92 75.24 119.81 83.69 160.3 170.1"/></g><path class="cls-6" d="M896.26,757.86h-9L867.1,696.63h12.39l12.29,39.9,12.3-39.9h12.47Z" transform="translate(-656.52 -575.59)"/><path class="cls-6" d="M924,757.86V696.63H935.9v61.23Z" transform="translate(-656.52 -575.59)"/><path class="cls-6" d="M967,758.38c-9.28,0-16.34-2-22.36-8.09l7.74-7.74c3.87,3.87,9.12,5.16,14.71,5.16,7.14,0,10.92-2.75,10.92-7.65a6.87,6.87,0,0,0-1.89-5.07c-1.2-1.12-2.41-1.64-5.5-2.07l-7.32-1.12c-5.41-.77-9.11-2.4-11.86-5.07-2.93-2.84-4.39-6.88-4.39-12,0-10.92,8.09-18.58,21.33-18.58,8.43,0,14.53,2.07,19.78,7.14l-7.57,7.48c-3.78-3.69-8.51-4.21-12.55-4.21-6.37,0-9.38,3.53-9.38,7.74a5.72,5.72,0,0,0,1.72,4.39A10,10,0,0,0,966,721l7.31,1.12c5.59.77,9,2.23,11.7,4.81,3.27,3,4.73,7.4,4.73,12.9C989.74,751.67,979.93,758.38,967,758.38Z" transform="translate(-656.52 -575.59)"/><path class="cls-6" d="M1022.59,758.38c-12.56,0-22.53-8.52-22.53-21.5V696.63h12v39.82c0,7,4.13,11.26,10.58,11.26s10.66-4.21,10.66-11.26V696.63h11.87v40.25C1045.12,749.86,1035.14,758.38,1022.59,758.38Z" transform="translate(-656.52 -575.59)"/><path class="cls-6" d="M1093.28,757.86,1089.67,747h-21.76l-3.7,10.83h-12.47L1074,696.63h9.37l22.36,61.23ZM1079,714.69,1071.26,737h15.23Z" transform="translate(-656.52 -575.59)"/><path class="cls-6" d="M1113.32,757.86V696.63h12V747.2h27.78v10.66Z" transform="translate(-656.52 -575.59)"/><path class="cls-6" d="M906.49,829.86l-12-24.42h-8.6v24.42H874V768.63h24c12.47,0,19.86,8.51,19.86,18.75a16.48,16.48,0,0,1-11.18,16.08l13.68,26.4Zm-9.29-50.57H885.94v16.17H897.2c5.25,0,8.69-3.35,8.69-8.08S902.45,779.29,897.2,779.29Z" transform="translate(-656.52 -575.59)"/><path class="cls-6" d="M930.23,829.86V768.63h40.33v10.66H942.18v14.37h24.17v10.66H942.18V819.2h28.38v10.66Z" transform="translate(-656.52 -575.59)"/><path class="cls-6" d="M999.11,830.38c-9.29,0-16.34-2-22.36-8.09l7.74-7.74c3.87,3.87,9.12,5.16,14.71,5.16,7.13,0,10.92-2.75,10.92-7.65a6.87,6.87,0,0,0-1.89-5.07c-1.21-1.12-2.41-1.64-5.51-2.07l-7.31-1.12c-5.41-.77-9.11-2.4-11.86-5.07-2.93-2.84-4.39-6.88-4.39-12,0-10.92,8.08-18.58,21.33-18.58,8.43,0,14.53,2.07,19.78,7.14l-7.57,7.48c-3.78-3.69-8.51-4.21-12.56-4.21-6.36,0-9.37,3.53-9.37,7.74a5.72,5.72,0,0,0,1.72,4.39,10,10,0,0,0,5.59,2.32l7.31,1.12c5.59.77,9,2.23,11.69,4.81,3.27,3,4.74,7.4,4.74,12.9C1021.82,823.67,1012,830.38,999.11,830.38Z" transform="translate(-656.52 -575.59)"/><path class="cls-6" d="M1070,823.93c-4.12,4.13-9.28,6.45-16.34,6.45s-12.29-2.32-16.42-6.45c-6.11-6.11-6.19-13-6.19-24.68s.08-18.58,6.19-24.69c4.13-4.12,9.37-6.45,16.42-6.45s12.22,2.33,16.34,6.45c6.11,6.11,6.28,13,6.28,24.69S1076.08,817.82,1070,823.93Zm-8.68-41.88a9.94,9.94,0,0,0-7.66-3.27,10.28,10.28,0,0,0-7.74,3.27c-2.23,2.58-2.92,5.5-2.92,17.2s.69,14.53,2.92,17.11a10.34,10.34,0,0,0,7.74,3.35,10,10,0,0,0,7.66-3.35c2.23-2.58,3-5.42,3-17.11S1063.52,784.63,1061.29,782.05Z" transform="translate(-656.52 -575.59)"/><path class="cls-6" d="M1110.05,830.38c-12.56,0-22.53-8.52-22.53-21.5V768.63h12v39.82c0,7,4.13,11.26,10.58,11.26s10.66-4.21,10.66-11.26V768.63h11.87v40.25C1132.58,821.86,1122.61,830.38,1110.05,830.38Z" transform="translate(-656.52 -575.59)"/><path class="cls-6" d="M1178.42,829.86l-12-24.42h-8.6v24.42h-12V768.63h24c12.47,0,19.86,8.51,19.86,18.75a16.48,16.48,0,0,1-11.18,16.08l13.68,26.4Zm-9.29-50.57h-11.26v16.17h11.26c5.25,0,8.69-3.35,8.69-8.08S1174.38,779.29,1169.13,779.29Z" transform="translate(-656.52 -575.59)"/><path class="cls-6" d="M1222.71,830.38c-7,0-12.21-2.32-16.43-6.45-6.1-6.11-6.19-13-6.19-24.68s.09-18.58,6.19-24.69c4.22-4.12,9.38-6.45,16.43-6.45,11.44,0,20.21,6.54,22.45,19.35h-12.22c-1.2-5-4.3-8.68-10.23-8.68a9.86,9.86,0,0,0-7.65,3.18c-2.24,2.58-3,5.59-3,17.29s.77,14.7,3,17.28a9.86,9.86,0,0,0,7.65,3.18c5.93,0,9.12-3.69,10.32-8.68h12.13C1242.92,823.84,1234.06,830.38,1222.71,830.38Z" transform="translate(-656.52 -575.59)"/><path class="cls-6" d="M1255.47,829.86V768.63h40.34v10.66h-28.38v14.37h24.16v10.66h-24.16V819.2h28.38v10.66Z" transform="translate(-656.52 -575.59)"/><path class="cls-6" d="M1324.36,830.38c-9.29,0-16.34-2-22.36-8.09l7.74-7.74c3.87,3.87,9.12,5.16,14.71,5.16,7.13,0,10.92-2.75,10.92-7.65a6.87,6.87,0,0,0-1.89-5.07c-1.21-1.12-2.41-1.64-5.51-2.07l-7.31-1.12c-5.41-.77-9.11-2.4-11.87-5.07-2.92-2.84-4.38-6.88-4.38-12,0-10.92,8.08-18.58,21.33-18.58,8.42,0,14.53,2.07,19.78,7.14l-7.57,7.48c-3.79-3.69-8.52-4.21-12.56-4.21-6.36,0-9.37,3.53-9.37,7.74a5.72,5.72,0,0,0,1.72,4.39,10,10,0,0,0,5.59,2.32l7.31,1.12c5.59.77,9,2.23,11.69,4.81,3.27,3,4.73,7.4,4.73,12.9C1347.06,823.67,1337.26,830.38,1324.36,830.38Z" transform="translate(-656.52 -575.59)"/><polygon class="cls-2" points="240.6 0 262.02 75.81 205.83 71.41 240.6 0"/><g class="cls-4"><polygon class="cls-7" points="207.5 70.75 262.02 75.81 244.95 15.21 243.09 8.14 241.08 0 207.5 70.75"/></g></g></g></svg>